<svg width="437" height="124" viewBox="0 0 437 124" fill="none" xmlns="http://www.w3.org/2000/svg">
<path d="M53.1472 0L0 30.9202V92.563L53.1472 123.483L106.294 92.563V30.8708L53.1472 0ZM90.4885 83.4252L53.0978 105.109L15.7071 83.4252V40.0086L53.0978 18.2755L90.4885 40.0086V83.4252Z" fill="black"/>
<path d="M77.943 76.1156L53.1476 90.5384L28.3027 76.1156V47.3193L53.1476 32.8965L77.943 47.3193L67.6198 53.2959L53.1476 44.899L38.6259 53.2959V70.139L53.1476 78.5359L67.6198 70.139L77.943 76.1156Z" fill="black"/>
<path d="M195.943 88.8629V41.7911H207.551V49.6446H208.094C209.033 46.928 210.613 44.8041 212.885 43.3223C215.157 41.8405 217.726 41.0996 220.64 41.0996C223.554 41.0996 222.023 41.0996 222.863 41.1984C223.702 41.2478 224.394 41.3466 224.937 41.4454V51.6698C212.441 49.9904 207.946 57.3994 207.946 67.2287V88.9123H195.943V88.8629Z" fill="black"/>
<path d="M274.232 52.7065C272.256 49.0514 269.391 46.1866 265.786 44.1614C262.13 42.1363 257.833 41.1484 252.894 41.1484C247.955 41.1484 243.608 42.1363 240.002 44.1614C236.347 46.1866 233.532 49.002 231.556 52.7065C229.58 56.3616 228.543 60.6094 228.543 65.4993C228.543 70.3893 229.531 74.6371 231.556 78.2428C233.532 81.8979 236.397 84.7133 240.002 86.7384C243.657 88.7636 247.955 89.7514 252.894 89.7514C257.833 89.7514 262.18 88.7636 265.786 86.7384C269.441 84.7133 272.256 81.8979 274.232 78.2428C276.207 74.5877 277.245 70.3399 277.245 65.4993C277.245 60.6588 276.257 56.3616 274.232 52.7065ZM264.551 73.2541C263.612 75.5756 262.13 77.4525 260.204 78.8355C258.278 80.2185 255.857 80.91 252.943 80.91C250.029 80.91 247.51 80.2185 245.534 78.8355C243.559 77.4525 242.126 75.6249 241.138 73.2541C240.2 70.9326 239.706 68.3147 239.706 65.4499C239.706 62.5851 240.2 59.9673 241.138 57.5964C242.077 55.2749 243.559 53.398 245.534 52.015C247.51 50.6319 249.98 49.9405 252.943 49.9405C255.907 49.9405 258.278 50.6319 260.204 52.015C262.13 53.398 263.612 55.2749 264.551 57.5964C265.489 59.9179 265.983 62.5357 265.983 65.4499C265.983 68.3641 265.489 70.8832 264.551 73.2541Z" fill="black"/>
<path d="M297.842 61.2515V88.813H285.84V41.7412H297.299V49.7429H297.892C299.077 47.125 300.954 45.0011 303.523 43.4699C306.091 41.9387 309.252 41.1484 313.056 41.1484C316.859 41.1484 319.625 41.8399 322.243 43.223C324.861 44.606 326.886 46.6311 328.318 49.2489C329.75 51.8668 330.491 55.0774 330.442 58.8312V88.813H318.439V60.56C318.439 57.3988 317.55 54.9292 315.822 53.151C314.043 51.3729 311.623 50.4838 308.561 50.4838C305.498 50.4838 304.609 50.9283 302.979 51.768C301.349 52.6077 300.065 53.8425 299.176 55.4231C298.238 57.0037 297.793 58.93 297.793 61.2021L297.842 61.2515Z" fill="black"/>
<path d="M435.452 54.1888L424.536 55.2755C424.24 54.2382 423.697 53.2997 422.956 52.4107C422.215 51.5216 421.178 50.7807 419.893 50.2374C418.609 49.694 417.029 49.3977 415.201 49.3977C413.373 49.3977 410.607 49.8916 408.928 50.8795C407.249 51.8673 406.409 53.201 406.409 54.7815C406.409 56.1646 406.952 57.2512 408.039 58.1403C409.126 59.0294 411.003 59.7209 413.571 60.2642L422.264 61.993C427.055 62.9314 430.661 64.4626 432.983 66.5371C435.353 68.6117 436.539 71.3283 436.539 74.7364C436.539 77.7 435.6 80.3179 433.723 82.59C431.896 84.8621 429.327 86.5908 426.067 87.875C422.808 89.1593 419.054 89.752 414.806 89.752C408.582 89.752 403.594 88.5171 399.79 86.0969C395.987 83.6766 393.715 80.3179 393.023 75.9713L404.73 74.934C405.273 77.0579 406.409 78.6385 408.088 79.7251C409.817 80.8118 412.04 81.3551 414.806 81.3551C417.572 81.3551 419.943 80.8118 421.672 79.7251C423.4 78.6385 424.289 77.3049 424.289 75.7243C424.289 74.1437 423.746 73.2546 422.61 72.3655C421.474 71.4765 419.745 70.8344 417.424 70.3404L408.73 68.6611C403.841 67.7226 400.235 66.142 397.913 63.9193C395.592 61.6966 394.406 58.8318 394.456 55.4237C394.456 52.5095 395.296 49.9904 397.024 47.8665C398.753 45.7426 401.173 44.0632 404.285 42.8778C407.397 41.6923 410.953 41.0996 415.003 41.0996C420.98 41.0996 425.672 42.285 429.081 44.6065C432.489 46.9774 434.613 50.1386 435.452 54.1394V54.1888Z" fill="black"/>
<path d="M384.626 52.7065C382.651 49.0514 379.786 46.1866 376.18 44.1614C372.525 42.1363 368.228 41.1484 363.288 41.1484C358.349 41.1484 354.002 42.1363 350.397 44.1614C346.742 46.1866 343.926 49.002 341.95 52.7065C339.975 56.3616 338.938 60.6094 338.938 65.4993C338.938 70.3893 339.925 74.6371 341.95 78.2428C343.926 81.8979 346.791 84.7133 350.397 86.7384C354.052 88.7636 358.349 89.7514 363.288 89.7514C368.228 89.7514 372.574 88.7636 376.18 86.7384C379.835 84.7133 382.651 81.8979 384.626 78.2428C386.602 74.5877 387.639 70.3399 387.639 65.4993C387.639 60.6588 386.651 56.3616 384.626 52.7065ZM374.945 73.2541C374.007 75.5756 372.525 77.4525 370.599 78.8355C368.672 80.2185 366.252 80.91 363.338 80.91C360.424 80.91 357.904 80.2185 355.929 78.8355C353.953 77.4525 352.521 75.6249 351.533 73.2541C350.594 70.9326 350.1 68.3147 350.1 65.4499C350.1 62.5851 350.594 59.9673 351.533 57.5964C352.471 55.2749 353.953 53.398 355.929 52.015C357.904 50.6319 360.374 49.9405 363.338 49.9405C366.301 49.9405 368.672 50.6319 370.599 52.015C372.525 53.398 374.007 55.2749 374.945 57.5964C375.884 59.9179 376.378 62.5357 376.378 65.4499C376.378 68.3641 375.884 70.8832 374.945 73.2541Z" fill="black"/>
<path d="M177.322 73.2541C176.384 75.5756 174.902 77.4525 172.976 78.8355C171.049 80.2185 168.629 80.91 165.715 80.91C162.801 80.91 160.281 80.2185 158.306 78.8355C156.33 77.4525 154.898 75.6249 153.91 73.2541C152.971 70.9326 152.477 68.3147 152.477 65.4499C152.477 62.5851 152.971 59.9673 153.91 57.5964C154.848 55.2749 156.33 53.398 158.306 52.015C160.281 50.6319 162.751 49.9405 165.715 49.9405C168.678 49.9405 171.049 50.6319 172.976 52.015C174.704 53.2498 176.038 54.8798 176.976 56.8555L187.843 54.3364C185.67 49.3477 181.965 46.0384 178.557 44.1614C174.902 42.1363 170.605 41.1484 165.665 41.1484C160.726 41.1484 156.379 42.1363 152.774 44.1614C149.119 46.1866 146.303 49.002 144.327 52.7065C142.352 56.3616 141.314 60.6094 141.314 65.4993C141.314 70.3893 142.302 74.6371 144.327 78.2428C146.303 81.8979 149.168 84.7133 152.774 86.7384C156.429 88.7636 160.726 89.7514 165.665 89.7514C170.605 89.7514 174.951 88.7636 178.557 86.7384C182.212 84.7133 184.879 82.0955 187.003 78.2428C187.3 77.7489 188.09 76.0201 188.09 76.0201L177.372 73.2541H177.322Z" fill="black"/>
</svg>
